PathFileType	4	(X/Y/Z)	P:\Projects\LMB_grand_challenge_database\project_only\opensim\experimental_data\SixthCompetition/DM_ngait_og5_new.trc
DataRate	CameraRate	NumFrames	NumMarkers	Units	OrigDataRate	OrigDataStartFrame	OrigNumFrames
120	120	8	68	mm	120	0	342
Frame#	Time	Sternum			Neck			R_Shoulder			L_Shoulder			Xiphoid			Thoracic			R_Asis			L_Asis			R_Psis			L_Psis			Lumbar			R_Elbow			R_ElbowMedial			R_ShoulderAnterior			R_ShoulderPosterior			R_Wrist			R_Radius			R_Ulna			L_Elbow			L_ElbowMedial			L_ShoulderAnterior			L_ShoulderPosterior			L_Wrist			L_Ulna			L_Radius			L_Thigh_Superior			L_Thigh_Inferior			L_Thigh_Lateral			L_Knee_Lateral			L_Knee_Medial			L_Patella			L_Shank_Superior			L_Shank_Inferior			L_Shank_Lateral			L_Ankle_Lateral			L_Ankle_Medial			R_Thigh_Superior			R_Thigh_Inferior			R_Thigh_Lateral			R_Knee_Lateral			R_Knee_Medial			R_Patella			R_Shank_Superior			R_Shank_Inferior			R_Shank_Lateral			R_Ankle_Lateral			RankleMedial			R_Heel			R_Toe			R_Midfoot_Medial			R_Midfoot_Lateral			R_Hindfoot			R_Midfoot_Superior			R_ToeMedial			R_ToeLateral			L_Heel			L_Toe			L_Midfoot_Medial			L_Midfoot_Lateral			L_Hindfoot			L_Midfoot_Superior			L_ToeMedial			L_ToeLateral			Oglobal			Sacral			Xglobal			Yglobal			Zglobal			
		X1	Y1	Z1	X2	Y2	Z2	X3	Y3	Z3	X4	Y4	Z4	X5	Y5	Z5	X6	Y6	Z6	X7	Y7	Z7	X8	Y8	Z8	X9	Y9	Z9	X10	Y10	Z10	X11	Y11	Z11	X12	Y12	Z12	X13	Y13	Z13	X14	Y14	Z14	X15	Y15	Z15	X16	Y16	Z16	X17	Y17	Z17	X18	Y18	Z18	X19	Y19	Z19	X20	Y20	Z20	X21	Y21	Z21	X22	Y22	Z22	X23	Y23	Z23	X24	Y24	Z24	X25	Y25	Z25	X26	Y26	Z26	X27	Y27	Z27	X28	Y28	Z28	X29	Y29	Z29	X30	Y30	Z30	X31	Y31	Z31	X32	Y32	Z32	X33	Y33	Z33	X34	Y34	Z34	X35	Y35	Z35	X36	Y36	Z36	X37	Y37	Z37	X38	Y38	Z38	X39	Y39	Z39	X40	Y40	Z40	X41	Y41	Z41	X42	Y42	Z42	X43	Y43	Z43	X44	Y44	Z44	X45	Y45	Z45	X46	Y46	Z46	X47	Y47	Z47	X48	Y48	Z48	X49	Y49	Z49	X50	Y50	Z50	X51	Y51	Z51	X52	Y52	Z52	X53	Y53	Z53	X54	Y54	Z54	X55	Y55	Z55	X56	Y56	Z56	X57	Y57	Z57	X58	Y58	Z58	X59	Y59	Z59	X60	Y60	Z60	X61	Y61	Z61	X62	Y62	Z62	X63	Y63	Z63	X64	Y64	Z64	X65	Y65	Z65	X66	Y66	Z66	X67	Y67	Z67	X68	Y68	Z68	

1	1.616667	-1290.26	1429.46	171.129	-1128.6	1349.29	145.529	-1165.22	1379.67	323.248	-1248.04	1393.61	-15.0942	-1113.42	1180	154.442	-1383.11	1246.18	171.62	-1208.38	957.801	309.541	-1200.11	943.872	30.4481	-1405.43	1001.62	194.514	-1403.28	994.739	115.837	-1401.12	1047.86	153.447	-1165.97	1068.19	432.886	-0	0	0	-0	0	0	-0	0	0	-1060.05	812.583	382.967	-1071.79	826.353	341.452	-1102.15	810.5170000000001	404.992	-1372.65	1076.95	-93.6604	-0	0	0	-0	0	0	-0	0	0	-1386.63	806.932	-104.323	-1428.89	831.178	-110.211	-1376.39	821.54	-60.6175	-1230.36	787.456	-14.4694	-1122.64	592.163	37.7334	-1112.07	693.934	57.5682	-0	0	0	-0	0	0	-1054.3	530.071	100.632	-1105.51	445.744	28.4057	-1053.89	179.046	20.8291	-1040.35	311.099	93.7052	-0	0	0	-0	0	0	-1331.12	787.008	338.448	-1390.14	577.183	297.327	-1282.59	678.699	315.938	-0	0	0	-0	0	0	-1345.82	461.68	229.471	-1494.63	402.534	307.52	-1573.58	208.691	293.426	-1460.3	307.312	225.691	-0	0	0	-0	0	0	-1700.08	93.34650000000001	241.999	-1407.67	42.0475	244.086	-1486.48	26.1364	190.256	-1498.77	21.3242	306.782	-1608.23	39.7135	293.839	-1529.71	120.611	248.099	-1440.28	33.5887	202.083	-1450	33.8155	291.999	-1090.06	56.4106	74.9752	-799.5309999999999	102.955	54.1012	-829.624	75.84220000000001	98.60169999999999	-835.5359999999999	78.38930000000001	3.50952	-0	0	0	-942.296	140.219	59.1757	-829.624	75.84220000000001	98.60169999999999	-835.5359999999999	78.38930000000001	3.50952	-0	0	0	-1404.35	998.1799999999999	155.175	-200	0	0	-0	0	200	-0	200	0	
2	1.625	-1281.05	1428.97	168.687	-1119.13	1349.22	143.071	-1156.04	1379.99	321.009	-1239.1	1392.88	-17.4141	-1103.34	1179.96	152.346	-1373.42	1245.41	170.046	-1197.49	959.206	307.763	-1189.58	943.721	29.0252	-1394.74	999.8049999999999	191.98	-1392.63	995.102	114.247	-1391	1047.22	151.601	-1158.35	1068.59	431.065	-0	0	0	-0	0	0	-0	0	0	-1054.11	812.028	382.541	-1065.5	825.333	341.097	-1096.25	810.057	404.328	-1364.11	1076.34	-95.3609	-0	0	0	-0	0	0	-0	0	0	-1378.11	806.0839999999999	-105.718	-1420.36	830.546	-111.852	-1367.99	820.954	-61.9231	-1216.78	787.463	-13.2659	-1111.45	591.443	41.1638	-1098.09	692.4690000000001	56.9791	-0	0	0	-0	0	0	-1042.97	528.875	101.685	-1094	445.81	27.862	-1047.4	178.128	19.5632	-1032.93	309.416	93.5787	-0	0	0	-0	0	0	-1321.58	786.5650000000001	337.381	-1380.8	576.684	296.211	-1273.16	678.056	315.227	-0	0	0	-0	0	0	-1334.25	461.183	230.29	-1487.17	403.878	306.651	-1569.45	211.426	293.371	-1453.86	302.978	227.606	-0	0	0	-0	0	0	-1697.81	98.41540000000001	242.304	-1407.37	40.4777	244.602	-1485.85	26.3185	190.405	-1498.36	21.2339	306.896	-1607.21	42.2457	294.028	-1526.89	121.519	248.675	-1440.15	33.2427	202.082	-1449.48	33.4944	291.985	-1088.2	57.4278	74.22199999999999	-796.239	94.6498	54.4168	-827.388	68.8826	98.8661	-832.91	70.3965	3.9591	-0	0	0	-936.83	136.859	59.0888	-827.388	68.8826	98.8661	-832.91	70.3965	3.9591	-0	0	0	-1393.68	997.453	153.114	-200	0	0	-0	0	200	-0	200	0	
3	1.633333	-1271.91	1428.56	166.353	-1109.87	1349.31	140.889	-1146.83	1380.36	319.049	-1230.24	1392.25	-19.4277	-1093.1	1180.01	149.982	-1363.68	1244.85	168.478	-1187.18	958.597	306.208	-1179.2	943.87	27.6273	-1384.46	999.328	190.503	-1382.41	994.658	112.825	-1380.79	1046.77	150.339	-1150.8	1069.06	429.244	-0	0	0	-0	0	0	-0	0	0	-1048.34	811.557	382.547	-1059.5	824.736	340.487	-1090.56	809.5410000000001	403.802	-1355.4	1075.68	-96.8471	-0	0	0	-0	0	0	-0	0	0	-1369.25	805.506	-107.071	-1411.34	830.09	-113.581	-1360.21	820.679	-63.0947	-1203.36	787.717	-10.7909	-1100.25	591.354	42.6547	-1084.75	690.724	56.2191	-0	0	0	-0	0	0	-1031.93	528.3390000000001	102.295	-1081.88	445.878	27.1893	-1041.34	177.108	18.3348	-1025.96	307.545	93.7193	-0	0	0	-0	0	0	-1311.58	786.093	336.069	-1370.84	576.236	295.06	-1263.32	677.422	314.391	-0	0	0	-0	0	0	-1323.93	460.203	230.466	-1479.19	405.112	306.141	-1564.94	214.329	293.437	-1448.79	301.807	227.105	-0	0	0	-0	0	0	-1695.64	104.114	241.758	-1406.23	39.8184	244.006	-1485.4	26.3885	191.02	-1498.84	21.2366	307.403	-1606.11	45.3226	293.959	-1523.52	122.548	249.397	-1439.7	32.7657	202.051	-1448.83	33.0531	292.033	-1086.64	58.5266	73.6807	-793.519	87.2546	53.1755	-825.297	62.4524	97.75709999999999	-829.801	63.6616	3.89246	-0	0	0	-933.39	133.262	57.274	-825.297	62.4524	97.75709999999999	-829.801	63.6616	3.89246	-0	0	0	-1383.43	996.9930000000001	151.664	-200	0	0	-0	0	200	-0	200	0	
4	1.641667	-1262.74	1428.41	164.103	-1100.32	1349.64	138.382	-1137.49	1381.04	316.996	-1221.29	1391.89	-21.6216	-1083.17	1180.34	147.718	-1353.88	1244.48	167.051	-1176.75	958.126	304.481	-1168.91	944.258	26.2261	-1374.17	998.9880000000001	189.058	-1372.27	994.328	111.497	-1370.61	1046.43	149.167	-1143.47	1069.78	427.592	-0	0	0	-0	0	0	-0	0	0	-1042.87	811.367	382.316	-1053.58	824.484	340.182	-1085.16	809.4829999999999	403.323	-1346.43	1075.09	-98.4325	-0	0	0	-0	0	0	-0	0	0	-1359.87	804.655	-108.541	-1401.93	829.4299999999999	-115.221	-1350.2	819.877	-64.687	-1190.01	788.099	-8.82427	-1088.16	591.8339999999999	42.2497	-1073.21	688.648	56.3247	-0	0	0	-0	0	0	-1021.1	527.974	102.25	-1069.64	445.726	27.0184	-1035.73	176.159	17.1932	-1019.24	305.761	93.42	-0	0	0	-0	0	0	-1301.18	785.55	334.702	-1360.54	575.625	294.087	-1252.99	676.817	313.437	-0	0	0	-0	0	0	-1313.2	458.673	230.224	-1470.41	406.515	305.36	-1559.74	217.474	293.572	-1443.82	301.132	226.069	-0	0	0	-0	0	0	-1692.61	110.422	242.187	-1406.02	38.3381	244.575	-1484.87	26.3188	191.31	-1498.44	21.4673	307.693	-1604.73	48.8215	294.344	-1519.83	123.561	249.802	-1438.96	32.1735	201.75	-1448.01	32.5079	292.114	-1084.8	58.3435	74.6259	-791.162	80.5108	51.9593	-823.694	57.1551	96.9744	-828.163	57.4266	2.82678	-0	0	0	-930.159	130.229	56.0972	-823.694	57.1551	96.9744	-828.163	57.4266	2.82678	-0	0	0	-1373.22	996.658	150.277	-200	0	0	-0	0	200	-0	200	0	
5	1.65	-1253.58	1428.49	161.933	-1090.89	1350.04	136.139	-1128.1	1381.75	314.986	-1212.38	1391.62	-23.5411	-1073.5	1180.82	145.666	-1344.21	1244.41	165.792	-1166.43	957.78	302.633	-1158.76	944.828	24.7565	-1363.95	998.934	187.481	-1362.23	994.321	110.105	-1360.47	1046.39	147.936	-1136.21	1070.59	425.79	-0	0	0	-0	0	0	-0	0	0	-1037.59	811.426	382.255	-1047.71	824.075	340.109	-1080.01	809.518	402.753	-1337.32	1074.64	-99.92440000000001	-0	0	0	-0	0	0	-0	0	0	-1350.18	804.2670000000001	-110.229	-1392.28	829.117	-116.936	-1339.35	818.938	-67.10209999999999	-1177.98	789.975	-8.71442	-1075.8	592.325	41.2811	-1062.06	688.316	57.9967	-0	0	0	-0	0	0	-1010.26	527.907	101.564	-1057.93	445.946	26.7774	-1030.91	175.618	16.2604	-1012.63	304.76	93.2529	-0	0	0	-0	0	0	-1290.43	785	333.048	-1349.4	574.974	292.797	-1242.13	676.35	312.34	-0	0	0	-0	0	0	-1301.6	457.153	229.824	-1460.92	407.977	304.537	-1553.88	220.915	293.676	-1438.48	300.288	225.48	-0	0	0	-0	0	0	-1688.93	117.454	242.606	-1405.07	37.7306	244.356	-1484.02	26.7462	191.596	-1497.83	21.9523	307.952	-1603	52.8921	294.584	-1515.66	124.893	250.397	-1438.38	31.6625	201.608	-1447.37	31.9886	292.225	-1084.28	60.1707	73.02549999999999	-789.159	74.65900000000001	51.5508	-822.278	52.3501	96.71420000000001	-826.721	52.3701	2.65237	-0	0	0	-927.085	128.133	55.3971	-822.278	52.3501	96.71420000000001	-826.721	52.3701	2.65237	-0	0	0	-1363.09	996.627	148.793	-200	0	0	-0	0	200	-0	200	0	
6	1.658333	-1244.24	1428.74	159.788	-1081.61	1350.76	133.777	-1118.56	1382.73	312.925	-1203.39	1391.58	-25.6603	-1063.22	1181.52	143.664	-1334.45	1244.58	164.639	-1155.98	957.52	300.658	-1148.94	945.766	23.1548	-1353.83	999.0410000000001	186.186	-1352.43	994.553	108.863	-1350.49	1046.56	146.99	-1129.22	1071.7	424.184	-0	0	0	-0	0	0	-0	0	0	-1032.46	811.587	382.183	-1041.84	824.205	339.883	-1075.11	809.898	402.334	-1327.98	1074.33	-101.581	-0	0	0	-0	0	0	-0	0	0	-1340.25	803.833	-111.741	-1382.14	828.703	-118.643	-1328.82	818.311	-68.9876	-1166.72	791.924	-8.67812	-1063.44	593.192	40.6331	-1051.36	689.6180000000001	60.8858	-0	0	0	-0	0	0	-999.6799999999999	527.886	101.172	-1047.56	446.541	26.222	-1026.27	175.289	15.8217	-1006.16	304.603	92.7893	-0	0	0	-0	0	0	-1279.33	784.407	331.236	-1337.33	574.03	291.4	-1230.6	675.854	310.887	-0	0	0	-0	0	0	-1289.01	455.518	229.706	-1450.5	409.417	303.805	-1547.37	224.358	293.73	-1432.22	299.943	224.223	-0	0	0	-0	0	0	-1684.31	124.825	242.821	-1404.47	36.0577	245.036	-1482.53	26.9526	192.603	-1496.73	23.1032	308.947	-1601.15	57.6888	295.13	-1511.08	126.36	250.94	-1437.5	31.5417	201.773	-1446.71	31.5841	292.547	-1083.79	60.8691	72.72490000000001	-787.794	70.21469999999999	52.2649	-821.221	48.3362	97.2809	-825.759	48.8948	3.1957	-0	0	0	-924.854	126.431	55.883	-821.221	48.3362	97.2809	-825.759	48.8948	3.1957	-0	0	0	-1353.13	996.797	147.524	-200	0	0	-0	0	200	-0	200	0	
7	1.666667	-1234.92	1429.29	157.861	-1072.01	1351.62	131.476	-1108.96	1383.86	311.14	-1194.21	1391.6	-27.6041	-1053.53	1182.41	141.763	-1324.77	1244.95	163.639	-1145.68	957.316	298.896	-1138.99	947.088	21.5685	-1343.72	999.301	184.92	-1342.53	994.938	107.684	-1340.53	1046.88	146.09	-1122.63	1072.96	422.736	-0	0	0	-0	0	0	-0	0	0	-1027.47	812.1180000000001	382.343	-1036.42	824.2569999999999	339.893	-1070.39	810.23	402.052	-1318.44	1074.16	-103.013	-0	0	0	-0	0	0	-0	0	0	-1329.62	803.5170000000001	-113.695	-1371.59	828.438	-120.319	-1318.48	818.384	-70.49590000000001	-1155.7	793.351	-8.951079999999999	-1051.03	596.035	40.0918	-1041.12	692.292	64.0001	-0	0	0	-0	0	0	-989.375	528.203	100.427	-1038.23	447.076	25.742	-1022.25	175.799	15.733	-1000.02	304.609	92.5771	-0	0	0	-0	0	0	-1268.06	783.798	329.509	-1324.82	573.183	290.129	-1219.15	675.679	309.794	-0	0	0	-0	0	0	-1275.55	453.909	229.335	-1439.27	410.869	303.051	-1540.06	228.178	293.694	-1424.52	299.705	223.547	-0	0	0	-0	0	0	-1678.99	133.248	243.231	-1403.38	34.4486	244.7	-1481.38	27.2811	192.858	-1495.68	23.9278	309.205	-1598.56	62.7275	295.47	-1505.71	127.721	251.284	-1435.91	31.2442	202.126	-1445.99	31.0971	292.759	-1083.34	61.2955	72.6942	-786.774	66.8018	53.0885	-820.66	45.3801	98.05670000000001	-825.072	46.5327	3.66513	-0	0	0	-923.155	125.266	56.4599	-820.66	45.3801	98.05670000000001	-825.072	46.5327	3.66513	-0	0	0	-1343.13	997.119	146.302	-200	0	0	-0	0	200	-0	200	0	
8	1.675	-1225.62	1430.14	156.015	-1062.73	1352.47	129.48	-1099.3	1385.13	309.229	-1185.11	1391.83	-29.2665	-1043.66	1183.3	139.712	-1315.14	1245.47	162.87	-1135.51	957.205	296.982	-1129.4	948.652	19.7882	-1333.81	999.827	183.689	-1332.87	995.6130000000001	106.562	-1330.78	1047.48	145.232	-1115.62	1074.26	421.114	-0	0	0	-0	0	0	-0	0	0	-1022.68	812.633	382.135	-1031.06	824.575	339.982	-1065.78	810.928	401.436	-1308.43	1074.04	-104.705	-0	0	0	-0	0	0	-0	0	0	-1318.88	803.522	-115.743	-1360.67	828.2809999999999	-122.153	-1307.56	818.415	-72.3302	-1145.4	794.728	-9.71674	-1038.59	599.876	40.3636	-1031.56	696.2430000000001	66.4903	-0	0	0	-0	0	0	-979.375	528.331	99.59350000000001	-1029.74	447.704	25.2192	-1018.62	176.329	15.9322	-994.2910000000001	304.793	92.72150000000001	-0	0	0	-0	0	0	-1256.49	783.029	327.455	-1311.37	572.058	288.5	-1205.67	675.011	307.207	-0	0	0	-0	0	0	-1261.35	452.318	228.804	-1427.25	412.459	302.04	-1532.11	232.179	293.562	-1415.51	299.972	223.226	-0	0	0	-0	0	0	-1672.8	142.304	243.28	-1402.25	32.8785	244.865	-1479.84	27.9943	193.086	-1494.44	25.162	309.411	-1595.3	68.37260000000001	295.553	-1499.82	129.33	251.572	-1434.87	30.6195	202.265	-1444.68	30.4597	292.454	-1083.13	61.5787	72.66070000000001	-786.029	64.43300000000001	53.1775	-820.072	43.3495	98.2469	-824.701	44.53	3.63171	-0	0	0	-922.077	123.844	57.4322	-820.072	43.3495	98.2469	-824.701	44.53	3.63171	-0	0	0	-1333.34	997.72	145.126	-200	0	0	-0	0	200	-0	200	0	
